<svg width="93" height="25" viewBox="0 0 93 25" fill="none" xmlns="http://www.w3.org/2000/svg">
<path d="M6.89998 9.6L11.7 7.5C11.9 7.4 12.1 7.4 12.4 7.5L17.2 9.6C17.6 9.8 18 9.3 17.7 8.9L12.7 2.8C12.4 2.4 11.8 2.4 11.5 2.8L6.49997 8.9C6.09997 9.3 6.49998 9.8 6.89998 9.6Z" stroke="white" stroke-width="1.5" stroke-miterlimit="10" stroke-linecap="round" stroke-linejoin="round"/>
<path d="M6.89998 15.4L11.7 17.5C11.9 17.6 12.1 17.6 12.4 17.5L17.2 15.4C17.6 15.2 18 15.7 17.7 16.1L12.7 22.2C12.4 22.6 11.8 22.6 11.5 22.2L6.49997 16.1C6.09997 15.7 6.49998 15.2 6.89998 15.4Z" stroke="white" stroke-width="1.5" stroke-miterlimit="10" stroke-linecap="round" stroke-linejoin="round"/>
<path d="M12 9.8999L6.79999 12.4999L12 15.0999L17.2 12.4999L12 9.8999Z" stroke="white" stroke-width="1.5" stroke-miterlimit="10" stroke-linecap="round" stroke-linejoin="round"/>
<path d="M28.767 15.9545V14.017L33.625 6.36364H35.2955V9.04545H34.3068L31.2443 13.892V13.983H38.1477V15.9545H28.767ZM34.3523 18V15.3636L34.3977 14.5057V6.36364H36.7045V18H34.3523ZM43.9972 6.20455C44.5956 6.20455 45.1714 6.30492 45.7244 6.50568C46.2813 6.70644 46.7775 7.02652 47.2131 7.46591C47.6525 7.9053 47.9991 8.48864 48.2528 9.21591C48.5104 9.93939 48.6411 10.8277 48.6449 11.8807C48.6449 12.8693 48.5331 13.7519 48.3097 14.5284C48.09 15.3011 47.7737 15.9583 47.3608 16.5C46.9479 17.0417 46.4498 17.4545 45.8665 17.7386C45.2831 18.0189 44.6316 18.1591 43.9119 18.1591C43.1354 18.1591 42.4498 18.0095 41.8551 17.7102C41.2604 17.4072 40.7813 16.9962 40.4176 16.4773C40.0578 15.9545 39.84 15.3674 39.7642 14.7159H42.1903C42.285 15.1402 42.4839 15.4697 42.7869 15.7045C43.09 15.9356 43.465 16.0511 43.9119 16.0511C44.6695 16.0511 45.2453 15.7216 45.6392 15.0625C46.0331 14.3996 46.232 13.4924 46.2358 12.3409H46.1562C45.982 12.6818 45.7472 12.9754 45.4517 13.2216C45.1563 13.464 44.8172 13.6515 44.4347 13.7841C44.0559 13.9167 43.6525 13.983 43.2244 13.983C42.5388 13.983 41.9271 13.822 41.3892 13.5C40.8513 13.178 40.4271 12.7348 40.1165 12.1705C39.8059 11.6061 39.6506 10.9621 39.6506 10.2386C39.6468 9.45833 39.8267 8.76326 40.1903 8.15341C40.554 7.54356 41.0616 7.06629 41.7131 6.72159C42.3684 6.37311 43.1297 6.20076 43.9972 6.20455ZM44.0142 8.13636C43.6316 8.13636 43.2907 8.22727 42.9915 8.40909C42.696 8.59091 42.4612 8.83523 42.2869 9.14205C42.1165 9.44886 42.0331 9.79167 42.0369 10.1705C42.0369 10.553 42.1203 10.8977 42.2869 11.2045C42.4574 11.5076 42.6884 11.75 42.9801 11.9318C43.2756 12.1098 43.6127 12.1989 43.9915 12.1989C44.2756 12.1989 44.5388 12.1458 44.7812 12.0398C45.0237 11.9337 45.2339 11.7879 45.4119 11.6023C45.5938 11.4129 45.7358 11.1951 45.8381 10.9489C45.9403 10.7027 45.9915 10.4413 45.9915 10.1648C45.9877 9.79735 45.9006 9.46023 45.7301 9.15341C45.5597 8.84659 45.3248 8.60038 45.0256 8.41477C44.7263 8.22917 44.3892 8.13636 44.0142 8.13636ZM54.9119 18.2557C53.9347 18.2519 53.0938 18.0114 52.3892 17.5341C51.6884 17.0568 51.1487 16.3655 50.7699 15.4602C50.3949 14.5549 50.2093 13.4659 50.2131 12.1932C50.2131 10.9242 50.4006 9.8428 50.7756 8.94886C51.1544 8.05492 51.6941 7.375 52.3949 6.90909C53.0994 6.43939 53.9384 6.20455 54.9119 6.20455C55.8854 6.20455 56.7225 6.43939 57.4233 6.90909C58.1278 7.37879 58.6695 8.06061 59.0483 8.95455C59.4271 9.8447 59.6146 10.9242 59.6108 12.1932C59.6108 13.4697 59.4214 14.5606 59.0426 15.4659C58.6676 16.3712 58.1297 17.0625 57.429 17.5398C56.7282 18.017 55.8892 18.2557 54.9119 18.2557ZM54.9119 16.2159C55.5786 16.2159 56.1108 15.8807 56.5085 15.2102C56.9063 14.5398 57.1032 13.5341 57.0994 12.1932C57.0994 11.3106 57.0085 10.5758 56.8267 9.98864C56.6487 9.40151 56.3949 8.96023 56.0653 8.66477C55.7396 8.36932 55.3551 8.22159 54.9119 8.22159C54.2491 8.22159 53.7188 8.55303 53.321 9.21591C52.9233 9.87879 52.7225 10.8712 52.7188 12.1932C52.7188 13.0871 52.8078 13.8333 52.9858 14.4318C53.1676 15.0265 53.4233 15.4735 53.7528 15.7727C54.0824 16.0682 54.4688 16.2159 54.9119 16.2159ZM61.4332 18V6.36364H69.2741V8.39205H63.8935V11.1648H68.8707V13.1932H63.8935V15.9716H69.2969V18H61.4332ZM70.7869 8.39205V6.36364H80.3438V8.39205H76.7812V18H74.3494V8.39205H70.7869ZM81.9176 18V6.36364H84.3778V11.1648H89.3722V6.36364H91.8267V18H89.3722V13.1932H84.3778V18H81.9176Z" fill="#FFFFFD"/>
</svg>
