<svg width="109" height="25" viewBox="0 0 109 25" fill="none" xmlns="http://www.w3.org/2000/svg">
<path d="M22 12.5C22 18.02 17.52 22.5 12 22.5C6.48 22.5 2 18.02 2 12.5C2 6.98 6.48 2.5 12 2.5C17.52 2.5 22 6.98 22 12.5Z" stroke="white" stroke-width="1.5" stroke-linecap="round" stroke-linejoin="round"/>
<path d="M15.71 15.68L12.61 13.83C12.07 13.51 11.63 12.74 11.63 12.11V8.01001" stroke="white" stroke-width="1.5" stroke-linecap="round" stroke-linejoin="round"/>
<path d="M41.5057 18.2557C40.5284 18.2519 39.6875 18.0114 38.983 17.5341C38.2822 17.0568 37.7424 16.3655 37.3636 15.4602C36.9886 14.5549 36.803 13.4659 36.8068 12.1932C36.8068 10.9242 36.9943 9.8428 37.3693 8.94886C37.7481 8.05492 38.2879 7.375 38.9886 6.90909C39.6932 6.43939 40.5322 6.20455 41.5057 6.20455C42.4792 6.20455 43.3163 6.43939 44.017 6.90909C44.7216 7.37879 45.2633 8.06061 45.642 8.95455C46.0208 9.8447 46.2083 10.9242 46.2045 12.1932C46.2045 13.4697 46.0152 14.5606 45.6364 15.4659C45.2614 16.3712 44.7235 17.0625 44.0227 17.5398C43.322 18.017 42.483 18.2557 41.5057 18.2557ZM41.5057 16.2159C42.1723 16.2159 42.7045 15.8807 43.1023 15.2102C43.5 14.5398 43.697 13.5341 43.6932 12.1932C43.6932 11.3106 43.6023 10.5758 43.4205 9.98864C43.2424 9.40151 42.9886 8.96023 42.6591 8.66477C42.3333 8.36932 41.9489 8.22159 41.5057 8.22159C40.8428 8.22159 40.3125 8.55303 39.9148 9.21591C39.517 9.87879 39.3163 10.8712 39.3125 12.1932C39.3125 13.0871 39.4015 13.8333 39.5795 14.4318C39.7614 15.0265 40.017 15.4735 40.3466 15.7727C40.6761 16.0682 41.0625 16.2159 41.5057 16.2159ZM52.2599 18.1591C51.4115 18.1591 50.6558 18.0133 49.9929 17.7216C49.3338 17.4261 48.813 17.0208 48.4304 16.5057C48.0516 15.9867 47.8565 15.3883 47.8452 14.7102H50.3224C50.3376 14.9943 50.4304 15.2443 50.6009 15.4602C50.7751 15.6723 51.0062 15.8371 51.294 15.9545C51.5819 16.072 51.9058 16.1307 52.2656 16.1307C52.6406 16.1307 52.9721 16.0644 53.2599 15.9318C53.5478 15.7992 53.7732 15.6155 53.9361 15.3807C54.099 15.1458 54.1804 14.875 54.1804 14.5682C54.1804 14.2576 54.0933 13.983 53.919 13.7443C53.7486 13.5019 53.5024 13.3125 53.1804 13.1761C52.8622 13.0398 52.4834 12.9716 52.044 12.9716H50.9588V11.1648H52.044C52.4152 11.1648 52.7429 11.1004 53.027 10.9716C53.3149 10.8428 53.5384 10.6648 53.6974 10.4375C53.8565 10.2064 53.9361 9.9375 53.9361 9.63068C53.9361 9.33902 53.866 9.08333 53.7259 8.86364C53.5895 8.64015 53.3963 8.46591 53.1463 8.34091C52.9001 8.21591 52.6122 8.15341 52.2827 8.15341C51.9493 8.15341 51.6444 8.21402 51.3679 8.33523C51.0914 8.45265 50.8698 8.62121 50.7031 8.84091C50.5365 9.06061 50.4474 9.31818 50.4361 9.61364H48.0781C48.0895 8.94318 48.2808 8.35227 48.652 7.84091C49.0232 7.32955 49.5232 6.92992 50.152 6.64205C50.7846 6.35038 51.4986 6.20455 52.294 6.20455C53.0971 6.20455 53.7997 6.35038 54.402 6.64205C55.0043 6.93371 55.4721 7.32765 55.8054 7.82386C56.1425 8.31629 56.3092 8.86932 56.3054 9.48295C56.3092 10.1345 56.1065 10.678 55.6974 11.1136C55.2921 11.5492 54.7637 11.8258 54.1122 11.9432V12.0341C54.9683 12.1439 55.6198 12.4413 56.0668 12.9261C56.5175 13.4072 56.741 14.0095 56.7372 14.733C56.741 15.3958 56.5497 15.9848 56.1634 16.5C55.7808 17.0152 55.2524 17.4205 54.5781 17.7159C53.9039 18.0114 53.1312 18.1591 52.2599 18.1591ZM59.9432 16.6477C59.5682 16.6477 59.2462 16.5152 58.9773 16.25C58.7121 15.9848 58.5795 15.6629 58.5795 15.2841C58.5795 14.9129 58.7121 14.5947 58.9773 14.3295C59.2462 14.0644 59.5682 13.9318 59.9432 13.9318C60.3068 13.9318 60.625 14.0644 60.8977 14.3295C61.1705 14.5947 61.3068 14.9129 61.3068 15.2841C61.3068 15.5341 61.2424 15.7633 61.1136 15.9716C60.9886 16.1761 60.8239 16.3409 60.6193 16.4659C60.4148 16.5871 60.1894 16.6477 59.9432 16.6477ZM59.9432 10.9375C59.5682 10.9375 59.2462 10.8049 58.9773 10.5398C58.7121 10.2746 58.5795 9.95265 58.5795 9.57386C58.5795 9.20265 58.7121 8.88636 58.9773 8.625C59.2462 8.35985 59.5682 8.22727 59.9432 8.22727C60.3068 8.22727 60.625 8.35985 60.8977 8.625C61.1705 8.88636 61.3068 9.20265 61.3068 9.57386C61.3068 9.82765 61.2424 10.0587 61.1136 10.267C60.9886 10.4716 60.8239 10.6345 60.6193 10.7557C60.4148 10.8769 60.1894 10.9375 59.9432 10.9375ZM63.2713 18V16.2273L67.4134 12.392C67.7656 12.0511 68.0611 11.7443 68.2997 11.4716C68.5421 11.1989 68.7259 10.9318 68.8509 10.6705C68.9759 10.4053 69.0384 10.1193 69.0384 9.8125C69.0384 9.47159 68.9607 9.17803 68.8054 8.93182C68.6501 8.68182 68.438 8.49053 68.169 8.35795C67.9001 8.22159 67.5952 8.15341 67.2543 8.15341C66.8982 8.15341 66.5876 8.22538 66.3224 8.36932C66.0573 8.51326 65.8527 8.7197 65.7088 8.98864C65.5649 9.25758 65.4929 9.57765 65.4929 9.94886H63.1577C63.1577 9.1875 63.33 8.52652 63.6747 7.96591C64.0194 7.4053 64.5024 6.97159 65.1236 6.66477C65.7448 6.35795 66.4607 6.20455 67.2713 6.20455C68.1046 6.20455 68.83 6.35227 69.4474 6.64773C70.0687 6.93939 70.5516 7.3447 70.8963 7.86364C71.241 8.38258 71.4134 8.97727 71.4134 9.64773C71.4134 10.0871 71.3262 10.5208 71.152 10.9489C70.9815 11.3769 70.6766 11.8523 70.2372 12.375C69.7978 12.8939 69.1785 13.517 68.3793 14.2443L66.6804 15.9091V15.9886H71.5668V18H63.2713ZM72.9233 15.9545V14.017L77.7812 6.36364H79.4517V9.04545H78.4631L75.4006 13.892V13.983H82.304V15.9545H72.9233ZM78.5085 18V15.3636L78.554 14.5057V6.36364H80.8608V18H78.5085ZM85.3807 16.6477C85.0057 16.6477 84.6837 16.5152 84.4148 16.25C84.1496 15.9848 84.017 15.6629 84.017 15.2841C84.017 14.9129 84.1496 14.5947 84.4148 14.3295C84.6837 14.0644 85.0057 13.9318 85.3807 13.9318C85.7443 13.9318 86.0625 14.0644 86.3352 14.3295C86.608 14.5947 86.7443 14.9129 86.7443 15.2841C86.7443 15.5341 86.6799 15.7633 86.5511 15.9716C86.4261 16.1761 86.2614 16.3409 86.0568 16.4659C85.8523 16.5871 85.6269 16.6477 85.3807 16.6477ZM85.3807 10.9375C85.0057 10.9375 84.6837 10.8049 84.4148 10.5398C84.1496 10.2746 84.017 9.95265 84.017 9.57386C84.017 9.20265 84.1496 8.88636 84.4148 8.625C84.6837 8.35985 85.0057 8.22727 85.3807 8.22727C85.7443 8.22727 86.0625 8.35985 86.3352 8.625C86.608 8.88636 86.7443 9.20265 86.7443 9.57386C86.7443 9.82765 86.6799 10.0587 86.5511 10.267C86.4261 10.4716 86.2614 10.6345 86.0568 10.7557C85.8523 10.8769 85.6269 10.9375 85.3807 10.9375ZM92.9588 18.1591C92.1558 18.1591 91.4399 18.0114 90.8111 17.7159C90.1861 17.4205 89.6899 17.0133 89.3224 16.4943C88.955 15.9754 88.7637 15.3807 88.7486 14.7102H91.1349C91.1615 15.161 91.3509 15.5265 91.7031 15.8068C92.0554 16.0871 92.474 16.2273 92.9588 16.2273C93.3452 16.2273 93.6861 16.142 93.9815 15.9716C94.2808 15.7973 94.5137 15.5568 94.6804 15.25C94.8509 14.9394 94.9361 14.5833 94.9361 14.1818C94.9361 13.7727 94.849 13.4129 94.6747 13.1023C94.5043 12.7917 94.2675 12.5492 93.9645 12.375C93.6615 12.2008 93.3149 12.1117 92.9247 12.108C92.5838 12.108 92.2524 12.178 91.9304 12.3182C91.6122 12.4583 91.3641 12.6496 91.1861 12.892L88.9986 12.5L89.5497 6.36364H96.6634V8.375H91.5781L91.277 11.2898H91.3452C91.5497 11.0019 91.8584 10.7633 92.2713 10.5739C92.6842 10.3845 93.1463 10.2898 93.6577 10.2898C94.3584 10.2898 94.9834 10.4545 95.5327 10.7841C96.0819 11.1136 96.5156 11.5663 96.8338 12.142C97.152 12.714 97.3092 13.3731 97.3054 14.1193C97.3092 14.9034 97.1274 15.6004 96.7599 16.2102C96.3963 16.8163 95.8868 17.2936 95.2315 17.642C94.58 17.9867 93.8224 18.1591 92.9588 18.1591ZM103.487 18.1591C102.889 18.1553 102.311 18.0549 101.754 17.858C101.201 17.661 100.705 17.3409 100.266 16.8977C99.8262 16.4545 99.4777 15.8674 99.2202 15.1364C98.9664 14.4053 98.8395 13.5076 98.8395 12.4432C98.8433 11.4659 98.955 10.5928 99.1747 9.82386C99.3982 9.05114 99.7164 8.39583 100.129 7.85795C100.546 7.32008 101.044 6.91098 101.624 6.63068C102.203 6.34659 102.853 6.20455 103.572 6.20455C104.349 6.20455 105.035 6.35606 105.629 6.65909C106.224 6.95833 106.701 7.36553 107.061 7.88068C107.425 8.39583 107.644 8.97348 107.72 9.61364H105.294C105.199 9.20833 105 8.89015 104.697 8.65909C104.394 8.42803 104.019 8.3125 103.572 8.3125C102.815 8.3125 102.239 8.64205 101.845 9.30114C101.455 9.96023 101.256 10.8561 101.249 11.9886H101.328C101.502 11.6439 101.737 11.3504 102.033 11.108C102.332 10.8617 102.671 10.6742 103.05 10.5455C103.432 10.4129 103.836 10.3466 104.26 10.3466C104.949 10.3466 105.563 10.5095 106.101 10.8352C106.639 11.1572 107.063 11.6004 107.374 12.1648C107.684 12.7292 107.839 13.375 107.839 14.1023C107.839 14.8902 107.656 15.5909 107.288 16.2045C106.925 16.8182 106.415 17.2992 105.76 17.6477C105.108 17.9924 104.351 18.1629 103.487 18.1591ZM103.476 16.2273C103.855 16.2273 104.194 16.1364 104.493 15.9545C104.792 15.7727 105.027 15.5265 105.197 15.2159C105.368 14.9053 105.453 14.5568 105.453 14.1705C105.453 13.7841 105.368 13.4375 105.197 13.1307C105.031 12.8239 104.8 12.5795 104.504 12.3977C104.209 12.2159 103.872 12.125 103.493 12.125C103.209 12.125 102.946 12.178 102.703 12.2841C102.464 12.3902 102.254 12.5379 102.072 12.7273C101.894 12.9167 101.754 13.1364 101.652 13.3864C101.55 13.6326 101.499 13.8958 101.499 14.1761C101.499 14.5511 101.584 14.8939 101.754 15.2045C101.929 15.5152 102.163 15.7633 102.459 15.9489C102.758 16.1345 103.097 16.2273 103.476 16.2273Z" fill="#FFFFFD"/>
</svg>
