<svg width="94" height="27" viewBox="0 0 94 27" fill="none" xmlns="http://www.w3.org/2000/svg">
<path d="M1.40909 7.36364H3.09091L7.04545 17.0227H7.18182L11.1364 7.36364H12.8182V19H11.5V10.1591H11.3864L7.75 19H6.47727L2.84091 10.1591H2.72727V19H1.40909V7.36364ZM18.0298 19.2045C17.4768 19.2045 16.9749 19.1004 16.5241 18.892C16.0734 18.6799 15.7154 18.375 15.4503 17.9773C15.1851 17.5758 15.0526 17.0909 15.0526 16.5227C15.0526 16.0227 15.151 15.6174 15.348 15.3068C15.545 14.9924 15.8082 14.7462 16.1378 14.5682C16.4673 14.3902 16.831 14.2576 17.2287 14.1705C17.6302 14.0795 18.0336 14.0076 18.4389 13.9545C18.9692 13.8864 19.3991 13.8352 19.7287 13.8011C20.062 13.7633 20.3045 13.7008 20.456 13.6136C20.6113 13.5265 20.6889 13.375 20.6889 13.1591V13.1136C20.6889 12.553 20.5355 12.1174 20.2287 11.8068C19.9257 11.4962 19.4654 11.3409 18.848 11.3409C18.2079 11.3409 17.706 11.4811 17.3423 11.7614C16.9787 12.0417 16.723 12.3409 16.5753 12.6591L15.3026 12.2045C15.5298 11.6742 15.8329 11.2614 16.2116 10.9659C16.5942 10.6667 17.0109 10.4583 17.4616 10.3409C17.9162 10.2197 18.3632 10.1591 18.8026 10.1591C19.0829 10.1591 19.4048 10.1932 19.7685 10.2614C20.1359 10.3258 20.4901 10.4602 20.831 10.6648C21.1757 10.8693 21.4616 11.178 21.6889 11.5909C21.9162 12.0038 22.0298 12.5568 22.0298 13.25V19H20.6889V17.8182H20.6207C20.5298 18.0076 20.3783 18.2102 20.1662 18.4261C19.9541 18.642 19.6719 18.8258 19.3196 18.9773C18.9673 19.1288 18.5374 19.2045 18.0298 19.2045ZM18.2344 18C18.7647 18 19.2116 17.8958 19.5753 17.6875C19.9427 17.4792 20.2192 17.2102 20.4048 16.8807C20.5942 16.5511 20.6889 16.2045 20.6889 15.8409V14.6136C20.6321 14.6818 20.5071 14.7443 20.3139 14.8011C20.1245 14.8542 19.9048 14.9015 19.6548 14.9432C19.4086 14.9811 19.1681 15.0152 18.9332 15.0455C18.7022 15.072 18.5147 15.0947 18.3707 15.1136C18.0223 15.1591 17.6965 15.233 17.3935 15.3352C17.0942 15.4337 16.8518 15.5833 16.6662 15.7841C16.4844 15.9811 16.3935 16.25 16.3935 16.5909C16.3935 17.0568 16.5658 17.4091 16.9105 17.6477C17.259 17.8826 17.7003 18 18.2344 18ZM24.4773 19V10.2727H25.7727V11.5909H25.8636C26.0227 11.1591 26.3106 10.8087 26.7273 10.5398C27.1439 10.2708 27.6136 10.1364 28.1364 10.1364C28.2348 10.1364 28.358 10.1383 28.5057 10.142C28.6534 10.1458 28.7652 10.1515 28.8409 10.1591V11.5227C28.7955 11.5114 28.6913 11.4943 28.5284 11.4716C28.3693 11.4451 28.2008 11.4318 28.0227 11.4318C27.5985 11.4318 27.2197 11.5208 26.8864 11.6989C26.5568 11.8731 26.2955 12.1155 26.1023 12.4261C25.9129 12.733 25.8182 13.0833 25.8182 13.4773V19H24.4773ZM31.6804 15.8182L31.6577 14.1591H31.9304L35.7486 10.2727H37.4077L33.3395 14.3864H33.2259L31.6804 15.8182ZM30.4304 19V7.36364H31.7713V19H30.4304ZM35.9759 19L32.5668 14.6818L33.5213 13.75L37.6804 19H35.9759ZM42.4332 19.1818C41.5923 19.1818 40.867 18.9962 40.2571 18.625C39.651 18.25 39.1832 17.7273 38.8537 17.0568C38.5279 16.3826 38.3651 15.5985 38.3651 14.7045C38.3651 13.8106 38.5279 13.0227 38.8537 12.3409C39.1832 11.6553 39.6416 11.1212 40.2287 10.7386C40.8196 10.3523 41.509 10.1591 42.2969 10.1591C42.7514 10.1591 43.2003 10.2348 43.6435 10.3864C44.0866 10.5379 44.4901 10.7841 44.8537 11.125C45.2173 11.4621 45.5071 11.9091 45.723 12.4659C45.9389 13.0227 46.0469 13.7083 46.0469 14.5227V15.0909H39.3196V13.9318H44.6832C44.6832 13.4394 44.5848 13 44.3878 12.6136C44.1946 12.2273 43.9181 11.9223 43.5582 11.6989C43.2022 11.4754 42.7817 11.3636 42.2969 11.3636C41.7628 11.3636 41.3007 11.4962 40.9105 11.7614C40.5241 12.0227 40.2268 12.3636 40.0185 12.7841C39.8101 13.2045 39.706 13.6553 39.706 14.1364V14.9091C39.706 15.5682 39.8196 16.1269 40.0469 16.5852C40.2779 17.0398 40.598 17.3864 41.0071 17.625C41.4162 17.8598 41.8916 17.9773 42.4332 17.9773C42.7855 17.9773 43.1037 17.928 43.3878 17.8295C43.6757 17.7273 43.9238 17.5758 44.1321 17.375C44.3404 17.1705 44.5014 16.9167 44.6151 16.6136L45.9105 16.9773C45.7741 17.4167 45.545 17.803 45.223 18.1364C44.901 18.4659 44.5033 18.7235 44.0298 18.9091C43.5563 19.0909 43.0241 19.1818 42.4332 19.1818ZM51.8821 10.2727V11.4091H47.3594V10.2727H51.8821ZM48.6776 8.18182H50.0185V16.5C50.0185 16.8788 50.0734 17.1629 50.1832 17.3523C50.2969 17.5379 50.4408 17.6629 50.6151 17.7273C50.7931 17.7879 50.9806 17.8182 51.1776 17.8182C51.3253 17.8182 51.4465 17.8106 51.5412 17.7955C51.6359 17.7765 51.7116 17.7614 51.7685 17.75L52.0412 18.9545C51.9503 18.9886 51.8234 19.0227 51.6605 19.0568C51.4976 19.0947 51.2912 19.1136 51.0412 19.1136C50.6624 19.1136 50.2912 19.0322 49.9276 18.8693C49.5677 18.7064 49.2685 18.4583 49.0298 18.125C48.795 17.7917 48.6776 17.3712 48.6776 16.8636V8.18182ZM53.8991 22.2727V10.2727H55.1946V11.6591H55.3537C55.4522 11.5076 55.5885 11.3144 55.7628 11.0795C55.9408 10.8409 56.1946 10.6288 56.5241 10.4432C56.8575 10.2538 57.3082 10.1591 57.8764 10.1591C58.6113 10.1591 59.259 10.3428 59.8196 10.7102C60.3802 11.0777 60.8177 11.5985 61.1321 12.2727C61.4465 12.947 61.6037 13.7424 61.6037 14.6591C61.6037 15.5833 61.4465 16.3845 61.1321 17.0625C60.8177 17.7367 60.3821 18.2595 59.8253 18.6307C59.2685 18.9981 58.6264 19.1818 57.8991 19.1818C57.3385 19.1818 56.8897 19.089 56.5526 18.9034C56.2154 18.714 55.956 18.5 55.7741 18.2614C55.5923 18.0189 55.4522 17.8182 55.3537 17.6591H55.2401V22.2727H53.8991ZM55.2173 14.6364C55.2173 15.2955 55.3139 15.8769 55.5071 16.3807C55.7003 16.8807 55.9825 17.2727 56.3537 17.5568C56.7249 17.8371 57.1795 17.9773 57.7173 17.9773C58.2779 17.9773 58.7457 17.8295 59.1207 17.5341C59.4995 17.2348 59.7836 16.8333 59.973 16.3295C60.1662 15.822 60.2628 15.2576 60.2628 14.6364C60.2628 14.0227 60.1681 13.4697 59.9787 12.9773C59.7931 12.4811 59.5109 12.089 59.1321 11.8011C58.7571 11.5095 58.2855 11.3636 57.7173 11.3636C57.1719 11.3636 56.7135 11.5019 56.3423 11.7784C55.9711 12.0511 55.6908 12.4337 55.5014 12.9261C55.312 13.4148 55.2173 13.9848 55.2173 14.6364ZM64.9901 7.36364V19H63.6491V7.36364H64.9901ZM70.0142 19.2045C69.4612 19.2045 68.9593 19.1004 68.5085 18.892C68.0578 18.6799 67.6998 18.375 67.4347 17.9773C67.1695 17.5758 67.0369 17.0909 67.0369 16.5227C67.0369 16.0227 67.1354 15.6174 67.3324 15.3068C67.5294 14.9924 67.7926 14.7462 68.1222 14.5682C68.4517 14.3902 68.8153 14.2576 69.2131 14.1705C69.6146 14.0795 70.018 14.0076 70.4233 13.9545C70.9536 13.8864 71.3835 13.8352 71.7131 13.8011C72.0464 13.7633 72.2888 13.7008 72.4403 13.6136C72.5956 13.5265 72.6733 13.375 72.6733 13.1591V13.1136C72.6733 12.553 72.5199 12.1174 72.2131 11.8068C71.91 11.4962 71.4498 11.3409 70.8324 11.3409C70.1922 11.3409 69.6903 11.4811 69.3267 11.7614C68.9631 12.0417 68.7074 12.3409 68.5597 12.6591L67.2869 12.2045C67.5142 11.6742 67.8172 11.2614 68.196 10.9659C68.5786 10.6667 68.9953 10.4583 69.446 10.3409C69.9006 10.2197 70.3475 10.1591 70.7869 10.1591C71.0672 10.1591 71.3892 10.1932 71.7528 10.2614C72.1203 10.3258 72.4744 10.4602 72.8153 10.6648C73.16 10.8693 73.446 11.178 73.6733 11.5909C73.9006 12.0038 74.0142 12.5568 74.0142 13.25V19H72.6733V17.8182H72.6051C72.5142 18.0076 72.3627 18.2102 72.1506 18.4261C71.9384 18.642 71.6563 18.8258 71.304 18.9773C70.9517 19.1288 70.5218 19.2045 70.0142 19.2045ZM70.2188 18C70.7491 18 71.196 17.8958 71.5597 17.6875C71.9271 17.4792 72.2036 17.2102 72.3892 16.8807C72.5786 16.5511 72.6733 16.2045 72.6733 15.8409V14.6136C72.6165 14.6818 72.4915 14.7443 72.2983 14.8011C72.1089 14.8542 71.8892 14.9015 71.6392 14.9432C71.393 14.9811 71.1525 15.0152 70.9176 15.0455C70.6866 15.072 70.4991 15.0947 70.3551 15.1136C70.0066 15.1591 69.6809 15.233 69.3778 15.3352C69.0786 15.4337 68.8362 15.5833 68.6506 15.7841C68.4688 15.9811 68.3778 16.25 68.3778 16.5909C68.3778 17.0568 68.5502 17.4091 68.8949 17.6477C69.2434 17.8826 69.6847 18 70.2188 18ZM80.0071 19.1818C79.1889 19.1818 78.4844 18.9886 77.8935 18.6023C77.3026 18.2159 76.848 17.6837 76.5298 17.0057C76.2116 16.3277 76.0526 15.553 76.0526 14.6818C76.0526 13.7955 76.2154 13.0133 76.5412 12.3352C76.8707 11.6534 77.3291 11.1212 77.9162 10.7386C78.5071 10.3523 79.1965 10.1591 79.9844 10.1591C80.598 10.1591 81.151 10.2727 81.6435 10.5C82.1359 10.7273 82.5393 11.0455 82.8537 11.4545C83.1681 11.8636 83.3632 12.3409 83.4389 12.8864H82.098C81.9957 12.4886 81.7685 12.1364 81.4162 11.8295C81.0677 11.5189 80.598 11.3636 80.0071 11.3636C79.4844 11.3636 79.026 11.5 78.6321 11.7727C78.242 12.0417 77.937 12.4223 77.7173 12.9148C77.5014 13.4034 77.3935 13.9773 77.3935 14.6364C77.3935 15.3106 77.4995 15.8977 77.7116 16.3977C77.9276 16.8977 78.2306 17.286 78.6207 17.5625C79.0147 17.839 79.4768 17.9773 80.0071 17.9773C80.3556 17.9773 80.6719 17.9167 80.956 17.7955C81.2401 17.6742 81.4806 17.5 81.6776 17.2727C81.8745 17.0455 82.0147 16.7727 82.098 16.4545H83.4389C83.3632 16.9697 83.1757 17.4337 82.8764 17.8466C82.581 18.2557 82.1889 18.5814 81.7003 18.8239C81.2154 19.0625 80.651 19.1818 80.0071 19.1818ZM89.0582 19.1818C88.2173 19.1818 87.492 18.9962 86.8821 18.625C86.276 18.25 85.8082 17.7273 85.4787 17.0568C85.1529 16.3826 84.9901 15.5985 84.9901 14.7045C84.9901 13.8106 85.1529 13.0227 85.4787 12.3409C85.8082 11.6553 86.2666 11.1212 86.8537 10.7386C87.4446 10.3523 88.134 10.1591 88.9219 10.1591C89.3764 10.1591 89.8253 10.2348 90.2685 10.3864C90.7116 10.5379 91.1151 10.7841 91.4787 11.125C91.8423 11.4621 92.1321 11.9091 92.348 12.4659C92.5639 13.0227 92.6719 13.7083 92.6719 14.5227V15.0909H85.9446V13.9318H91.3082C91.3082 13.4394 91.2098 13 91.0128 12.6136C90.8196 12.2273 90.5431 11.9223 90.1832 11.6989C89.8272 11.4754 89.4067 11.3636 88.9219 11.3636C88.3878 11.3636 87.9257 11.4962 87.5355 11.7614C87.1491 12.0227 86.8518 12.3636 86.6435 12.7841C86.4351 13.2045 86.331 13.6553 86.331 14.1364V14.9091C86.331 15.5682 86.4446 16.1269 86.6719 16.5852C86.9029 17.0398 87.223 17.3864 87.6321 17.625C88.0412 17.8598 88.5166 17.9773 89.0582 17.9773C89.4105 17.9773 89.7287 17.928 90.0128 17.8295C90.3007 17.7273 90.5488 17.5758 90.7571 17.375C90.9654 17.1705 91.1264 16.9167 91.2401 16.6136L92.5355 16.9773C92.3991 17.4167 92.17 17.803 91.848 18.1364C91.526 18.4659 91.1283 18.7235 90.6548 18.9091C90.1813 19.0909 89.6491 19.1818 89.0582 19.1818Z" fill="white"/>
<path d="M94 25.5H0V26.5H94V25.5Z" fill="#D6EF0E"/>
</svg>
